<svg width="69" height="22" viewBox="0 0 69 22" fill="none" xmlns="http://www.w3.org/2000/svg">
<path d="M11 19.25C15.5563 19.25 19.25 15.5563 19.25 11C19.25 6.44365 15.5563 2.75 11 2.75C6.44365 2.75 2.75 6.44365 2.75 11C2.75 15.5563 6.44365 19.25 11 19.25Z" stroke="#22425A" stroke-width="1.2" stroke-linecap="round" stroke-linejoin="round"/>
<path d="M7.90625 10.3125C8.47579 10.3125 8.9375 9.85079 8.9375 9.28125C8.9375 8.71171 8.47579 8.25 7.90625 8.25C7.33671 8.25 6.875 8.71171 6.875 9.28125C6.875 9.85079 7.33671 10.3125 7.90625 10.3125Z" fill="#22425A"/>
<path d="M14.0938 10.3125C14.6633 10.3125 15.125 9.85079 15.125 9.28125C15.125 8.71171 14.6633 8.25 14.0938 8.25C13.5242 8.25 13.0625 8.71171 13.0625 9.28125C13.0625 9.85079 13.5242 10.3125 14.0938 10.3125Z" fill="#22425A"/>
<path d="M14.5795 13.0625C14.2161 13.6886 13.6946 14.2083 13.0672 14.5696C12.4398 14.9309 11.7285 15.121 11.0045 15.121C10.2805 15.121 9.56925 14.9309 8.94185 14.5696C8.31446 14.2083 7.79294 13.6886 7.4295 13.0625" stroke="#22425A" stroke-width="1.2" stroke-linecap="round" stroke-linejoin="round"/>
<path d="M64.944 6.1875H51.0565C50.8874 6.18829 50.7243 6.25067 50.5977 6.36296C50.4712 6.47525 50.3899 6.62978 50.369 6.79766L49.1487 17.7977C49.1379 17.8935 49.1473 17.9906 49.1764 18.0825C49.2055 18.1745 49.2537 18.2593 49.3177 18.3314C49.3817 18.4035 49.4602 18.4614 49.5481 18.5012C49.6359 18.541 49.7312 18.5619 49.8276 18.5625H66.1729C66.2694 18.5619 66.3646 18.541 66.4525 18.5012C66.5403 18.4614 66.6188 18.4035 66.6829 18.3314C66.7469 18.2593 66.795 18.1745 66.8241 18.0825C66.8533 17.9906 66.8627 17.8935 66.8518 17.7977L65.6315 6.79766C65.6106 6.62978 65.5293 6.47525 65.4028 6.36296C65.2763 6.25067 65.1132 6.18829 64.944 6.1875V6.1875Z" stroke="#22425A" stroke-width="1.2" stroke-linecap="round" stroke-linejoin="round"/>
<path d="M54.5625 8.9375V6.1875C54.5625 5.27582 54.9247 4.40148 55.5693 3.75682C56.214 3.11216 57.0883 2.75 58 2.75C58.9117 2.75 59.786 3.11216 60.4307 3.75682C61.0753 4.40148 61.4375 5.27582 61.4375 6.1875V8.9375" stroke="#22425A" stroke-width="1.2" stroke-linecap="round" stroke-linejoin="round"/>
</svg>
